<svg xmlns="http://www.w3.org/2000/svg" xmlns:xlink="http://www.w3.org/1999/xlink" width="168.948" height="29.064" viewBox="0 0 168.948 29.064">
  <defs>
    <clipPath id="clip-path">
      <path id="パス_108" data-name="パス 108" d="M76,170h34.744v22.7H76Zm0,0" transform="translate(-76 -170)"/>
    </clipPath>
    <clipPath id="clip-path-2">
      <path id="パス_110" data-name="パス 110" d="M95,191h8.825v7.254H95Zm0,0" transform="translate(-95 -191)"/>
    </clipPath>
    <clipPath id="clip-path-3">
      <path id="パス_112" data-name="パス 112" d="M108,191h2.206v7.254H108Zm0,0" transform="translate(-108 -191)"/>
    </clipPath>
    <clipPath id="clip-path-4">
      <path id="パス_115" data-name="パス 115" d="M92,198h1.471v2.106H92Zm0,0" transform="translate(-92 -198)"/>
    </clipPath>
    <clipPath id="clip-path-5">
      <path id="パス_122" data-name="パス 122" d="M98,198h.735v2.106H98Zm0,0" transform="translate(-98 -198)"/>
    </clipPath>
    <clipPath id="clip-path-6">
      <path id="パス_124" data-name="パス 124" d="M100,198h1.471v2.106H100Zm0,0" transform="translate(-100 -198)"/>
    </clipPath>
    <clipPath id="clip-path-7">
      <path id="パス_126" data-name="パス 126" d="M76,167.863h34.566V181.2H76Zm0,0" transform="translate(-76 -167.863)"/>
    </clipPath>
    <clipPath id="clip-path-8">
      <path id="パス_129" data-name="パス 129" d="M71.551,198.383h78.712V205H71.551Zm0,0" transform="translate(-71.551 -198.383)"/>
    </clipPath>
  </defs>
  <g id="logo" transform="translate(-71.551 -167.863)">
    <g id="グループ_1736" data-name="グループ 1736" transform="translate(74.823 169.435)" clip-path="url(#clip-path)">
      <path id="パス_107" data-name="パス 107" d="M84.463,185.328c.184-.362.284-.373.276-.73s-.109-1-.072-1.218c0,0-1.2.178-1.508-.758,0,0,.526-.816,1.574-.011,0,0,.129,0,.129-.221,0-.572.589-.54.747-.641a.76.76,0,0,1,.741.026c.178.169.517-.023.807.319.181.218,1.028.215,2.485.19,3.605-.069,4.476.758,8.538-.626a2.393,2.393,0,0,1,2.689.5,1.245,1.245,0,0,1,1.442,1.37c-.089,1.612-.382,4.18.526,4.551a.4.4,0,0,1-.253-.011.678.678,0,0,0,.192.158.282.282,0,0,1,.155.236.345.345,0,0,0-.247-.121.387.387,0,0,1,.149.483s-.017-.224-.138-.3a.71.71,0,0,1-.026.256.4.4,0,0,0-.095-.175s-.155.405.213.414c0,0-.327.273-.434-.434a.284.284,0,0,0-.152-.213.8.8,0,0,1,.023.33,3.341,3.341,0,0,0-.115-.348c-.043-.08-.034-.126-.006-.3a1.123,1.123,0,0,0-.078-.506,7.654,7.654,0,0,1-.092-1.666c.023-.807.086-2.9-.592-3.025a5.186,5.186,0,0,1,0,4.16,1.621,1.621,0,0,0,.112,1.77c.147.19.066.506-.055,1.054-.034.155-.078.373-.121.626a1.42,1.42,0,0,0,.192-.635c.445.422-.767,1.678-.043,2.965,0,0,.029-1.528.583-1.939a2.122,2.122,0,0,0,.034,1.531,2.113,2.113,0,0,0,.037-1.531c.554.411.58,1.939.58,1.939.727-1.287-.488-2.542-.043-2.965.043.833.842,1.109.7,2.33a2.516,2.516,0,0,0,.419-1.744,2.352,2.352,0,0,1-.445,2.508c1.166-.572.8-2.482,1.321-2.675a6.872,6.872,0,0,0,.037,1.563,3.16,3.16,0,0,0,.178-2.045,2.073,2.073,0,0,1,.3,1.836c1.244-1.646,2.218-1.839,2.218-1.839a5.672,5.672,0,0,0-1.833,2.063,4.364,4.364,0,0,1,.914-.583,2.513,2.513,0,0,0-.712,1.29,7.957,7.957,0,0,1,2.04-2.02,3.549,3.549,0,0,0-1.054,1.586,4.389,4.389,0,0,1,1.7-1.6,3.381,3.381,0,0,0-1.02,1.643,5.073,5.073,0,0,1,2.083-2.037,3.478,3.478,0,0,0-1.278,2.333,3.373,3.373,0,0,1,1.3-1.738,2.233,2.233,0,0,0-.781,1.773,1.527,1.527,0,0,1,.4-.9,1.593,1.593,0,0,0,.1.833,4.259,4.259,0,0,1,.669-1.054,17.263,17.263,0,0,0,.534-8.779c-2.117-1.485-6.774-5.4-7.311-5.7-.615-.345-.81.2-1.658-.75s-3.577-3.723-4.608-4.6-1.235-.7-1.64-.595a.932.932,0,0,0-.353,1.462,1.749,1.749,0,0,1-.336,2.043,1,1,0,0,0-.04,1.161c.833,1.859,4.416,3.5,4.416,3.5.618.221,1.612.572.353.379a10.469,10.469,0,0,1-4.625-2.3c-1.419-1.069-2.04-.3-2.051.2s-.227.635-1.241-.04a19.427,19.427,0,0,1-2.5-2.27c-.689-.621-1.2-1.284-1.962-.534-.279.276-.58.7-.451.985.181.4.256.721-.184.951s-1.827.434-1.764,1.434,1.982,1.939,1.982,1.939c-3.054-.178-2.361-2.939-4.9-.914a41.53,41.53,0,0,1-5.1,3.186v0c-.04.175-.078.35-.112.529v0A17.447,17.447,0,0,0,76,185.942a17.127,17.127,0,0,0,.868,5.4,4.177,4.177,0,0,1,.669,1.054,1.593,1.593,0,0,0,.1-.833,1.527,1.527,0,0,1,.4.9,2.233,2.233,0,0,0-.781-1.773,3.373,3.373,0,0,1,1.3,1.738,3.478,3.478,0,0,0-1.278-2.333,5.088,5.088,0,0,1,2.086,2.037,3.4,3.4,0,0,0-1.023-1.643,4.389,4.389,0,0,1,1.7,1.6,3.549,3.549,0,0,0-1.054-1.586,7.957,7.957,0,0,1,2.04,2.02,2.513,2.513,0,0,0-.712-1.29,4.364,4.364,0,0,1,.914.583,5.672,5.672,0,0,0-1.833-2.063s.974.192,2.218,1.839a2.073,2.073,0,0,1,.3-1.836,3.16,3.16,0,0,0,.178,2.045,6.872,6.872,0,0,0,.037-1.563c.523.192.155,2.1,1.321,2.675A2.352,2.352,0,0,1,83,190.41a2.516,2.516,0,0,0,.419,1.744c-.141-1.221.661-1.5.7-2.33.445.422-.77,1.678-.043,2.965,0,0,.026-1.528.583-1.939a2.1,2.1,0,0,0,.08,1.629,2.109,2.109,0,0,0,.08-1.629c.554.411.583,1.939.583,1.939.727-1.287-.488-2.542-.043-2.965.04.833.842,1.109.7,2.33a2.516,2.516,0,0,0,.419-1.744,2.356,2.356,0,0,1-.448,2.508c1.169-.572.8-2.482,1.321-2.675a6.963,6.963,0,0,0,.04,1.563,3.183,3.183,0,0,0,.178-2.045,2.078,2.078,0,0,1,.293,1.836,7.084,7.084,0,0,1,1.172-1.244,3.514,3.514,0,0,0-.307-1.037.838.838,0,0,1-.405-.319.762.762,0,0,0-.486-.342,1.109,1.109,0,0,1-.46-.353c-.052-.1-.158-.138-.256-.233s-.1.023-.129-.652-.48-1.333-.879-1.3a7.139,7.139,0,0,0-.9.046c-.221.066-.316-.086-.391-.187s-.135-.049-.238-.069S84.277,185.692,84.463,185.328Zm0,0" transform="translate(-76 -170.219)" fill="#93c572" fill-rule="evenodd"/>
    </g>
    <g id="グループ_1737" data-name="グループ 1737" transform="translate(88.796 184.879)" clip-path="url(#clip-path-2)">
      <path id="パス_109" data-name="パス 109" d="M103.2,193.346c-2.9,2.858-5.148.2-6.832,1.005a2.011,2.011,0,0,1,.267-.893,2.311,2.311,0,0,0,.011-1.474,3.281,3.281,0,0,1-.227,1.445,1.79,1.79,0,0,0-.213,1.5,2.876,2.876,0,0,1-.155,1.37,3.075,3.075,0,0,1,.362-.21,3.033,3.033,0,0,0-.431.457c-.006.026-.011.052-.017.075a2.881,2.881,0,0,0-.026.322,4.8,4.8,0,0,1,1.534-1.247,3.478,3.478,0,0,0-1.278,2.333,3.386,3.386,0,0,1,1.3-1.738,2.231,2.231,0,0,0-.784,1.773,1.527,1.527,0,0,1,.4-.9,1.593,1.593,0,0,0,.1.833,4.265,4.265,0,0,1,.623-1,3.851,3.851,0,0,0-.517-.422,1.837,1.837,0,0,1,.6.325,3.4,3.4,0,0,1,.408-.4,2.8,2.8,0,0,0-.316.468c.06.049.121.1.184.164a5.9,5.9,0,0,1,.356-.471,3.25,3.25,0,0,0-.629-.793,3.156,3.156,0,0,1,.764.641,3.156,3.156,0,0,1,.764-.641,3.25,3.25,0,0,0-.629.793,5.9,5.9,0,0,1,.356.471c.063-.06.124-.115.184-.164a2.957,2.957,0,0,0-.313-.468,3.534,3.534,0,0,1,.405.4,1.837,1.837,0,0,1,.6-.325,3.851,3.851,0,0,0-.517.422,4.265,4.265,0,0,1,.623,1,1.593,1.593,0,0,0,.1-.833,1.527,1.527,0,0,1,.4.9,2.231,2.231,0,0,0-.784-1.773,3.37,3.37,0,0,1,1.3,1.738,3.478,3.478,0,0,0-1.278-2.333,5.073,5.073,0,0,1,2.083,2.037,3.4,3.4,0,0,0-1.023-1.643,4.406,4.406,0,0,1,1.7,1.6,3.57,3.57,0,0,0-1.057-1.586,10.362,10.362,0,0,1,1.709,1.523l.066-.1s.011-.017.032-.052a2.345,2.345,0,0,0-.48-.641,3.238,3.238,0,0,1,.632.368c.023-.046.046-.095.072-.147a5.493,5.493,0,0,0-1.623-1.7,3.8,3.8,0,0,1,1.787,1.31,2.4,2.4,0,0,0,.158-.735,1.309,1.309,0,0,0-.132-.928,4.129,4.129,0,0,1-.33-1.393c-.052-.408-.655-1.284-1.313-.876A1.01,1.01,0,0,1,103.2,193.346Zm0,0" transform="translate(-95.249 -191.26)" fill="#93c572" fill-rule="evenodd"/>
    </g>
    <g id="グループ_1738" data-name="グループ 1738" transform="translate(98.357 184.879)" clip-path="url(#clip-path-3)">
      <path id="パス_111" data-name="パス 111" d="M108.254,196.2a8.209,8.209,0,0,0,.451,1.686.71.71,0,0,0,.135-.184,2.441,2.441,0,0,1-.04-1.428c-.023-.207-.04-.348-.04-.348.7-.572-.213-1.982.152-2.215a2.49,2.49,0,0,0,.853-1.732,3.362,3.362,0,0,1-.931,1.474c-.715.385.417,1.818-.233,2.281A1.666,1.666,0,0,0,108.254,196.2Zm0,0" transform="translate(-108.067 -191.258)" fill="#93c572" fill-rule="evenodd"/>
    </g>
    <path id="パス_113" data-name="パス 113" d="M107.817,199.066a5.756,5.756,0,0,0,.063-.793c-.069.135-.138.279-.2.419A2.825,2.825,0,0,0,107.817,199.066Zm0,0" transform="translate(-9.557 -8.045)" fill="#93c572" fill-rule="evenodd"/>
    <g id="グループ_1739" data-name="グループ 1739" transform="translate(86.59 190.027)" clip-path="url(#clip-path-4)">
      <path id="パス_114" data-name="パス 114" d="M93.606,199.013c0-.1,0-.233,0-.376a2.48,2.48,0,0,0-.669,1.247A3.575,3.575,0,0,1,93.606,199.013Zm0,0" transform="translate(-92.247 -198.168)" fill="#93c572" fill-rule="evenodd"/>
    </g>
    <path id="パス_116" data-name="パス 116" d="M92.656,198.947a4.517,4.517,0,0,1,.87-.563c-.006-.187-.017-.4-.043-.615A6.3,6.3,0,0,0,92.656,198.947Zm0,0" transform="translate(-5.584 -7.912)" fill="#93c572" fill-rule="evenodd"/>
    <path id="パス_117" data-name="パス 117" d="M94.845,198.438a3.024,3.024,0,0,0-.23.368c-.006.083-.011.167-.017.244.078-.1.155-.192.233-.282C94.839,198.639,94.845,198.521,94.845,198.438Zm0,0" transform="translate(-6.097 -8.089)" fill="#93c572" fill-rule="evenodd"/>
    <path id="パス_118" data-name="パス 118" d="M94.621,198.03c.066-.057.132-.115.2-.164-.04-.253-.129-.606-.2-.925-.017.014-.037.029-.055.046.011.138.032.3.063.5C94.63,197.487,94.627,197.731,94.621,198.03Zm0,0" transform="translate(-6.089 -7.693)" fill="#93c572" fill-rule="evenodd"/>
    <path id="パス_119" data-name="パス 119" d="M94.548,196.688a.314.314,0,0,1,.043-.023,2.7,2.7,0,0,1-.046-.333A2.562,2.562,0,0,0,94.548,196.688Zm0,0" transform="translate(-6.082 -7.532)" fill="#93c572" fill-rule="evenodd"/>
    <path id="パス_120" data-name="パス 120" d="M99.626,198.734a2.26,2.26,0,0,0-.149.563c.049.06.1.129.149.2.049-.069.1-.138.149-.2A2.259,2.259,0,0,0,99.626,198.734Zm0,0" transform="translate(-7.388 -8.167)" fill="#93c572" fill-rule="evenodd"/>
    <g id="グループ_1740" data-name="グループ 1740" transform="translate(91.003 190.027)" clip-path="url(#clip-path-5)">
      <path id="パス_121" data-name="パス 121" d="M98.726,199.127c-.049-.06-.1-.121-.158-.178a2.879,2.879,0,0,0-.279.991A6.235,6.235,0,0,1,98.726,199.127Zm0,0" transform="translate(-98.076 -198.251)" fill="#93c572" fill-rule="evenodd"/>
    </g>
    <g id="グループ_1741" data-name="グループ 1741" transform="translate(92.474 190.027)" clip-path="url(#clip-path-6)">
      <path id="パス_123" data-name="パス 123" d="M100.477,199.127a6.6,6.6,0,0,1,.44.813,2.928,2.928,0,0,0-.282-.991C100.58,199.007,100.525,199.067,100.477,199.127Zm0,0" transform="translate(-100.126 -198.251)" fill="#93c572" fill-rule="evenodd"/>
    </g>
    <g id="グループ_1742" data-name="グループ 1742" transform="translate(74.823 167.863)" clip-path="url(#clip-path-7)">
      <path id="パス_125" data-name="パス 125" d="M76.879,180.472c1.971-.747,8.254-6.76,9.607-7.909,1.287-1.089,2.16-.161,2.666.3s1.862,1.362,1.862,1.362l-1.051-1.132s.21-.155,2.482-2.267,3.014-1.977,3.617-1.87,4.056,3.312,7.142,5.944c2.847,2.433,6.628,5.375,7.185,5.812a17.392,17.392,0,0,0-33.509-.236Zm0,0" transform="translate(-76.233 -167.863)" fill="#93c572" fill-rule="evenodd"/>
    </g>
    <path id="パス_127" data-name="パス 127" d="M172.263,205.359a20.763,20.763,0,0,0-5.568-1.186c-.391-.034-.391-.675,0-.626a17.839,17.839,0,0,1,5.723,1.459C172.608,205.086,172.467,205.439,172.263,205.359Zm0,0" transform="translate(-25.094 -9.439)" fill="#93c572"/>
    <g id="グループ_1743" data-name="グループ 1743" transform="translate(71.551 190.309)" clip-path="url(#clip-path-8)">
      <path id="パス_128" data-name="パス 128" d="M72.966,199.275a9.29,9.29,0,0,0,5.519,3.531,27.7,27.7,0,0,0,7.676.882c5.349-.049,10.727-.868,16.042-1.445,10.868-1.169,21.8-2.4,32.739-2.244a68.551,68.551,0,0,1,7.285.417c5.473.8,7.475,2.517,7.6,2.632s.25.224.359.336a.191.191,0,0,1-.187.319,39.056,39.056,0,0,0-6.691-1.908,52.7,52.7,0,0,0-7.616-.546,167.97,167.97,0,0,0-16.789.609c-5.536.451-11.055,1.092-16.559,1.732-5.41.626-10.882,1.508-16.338,1.494-4.752,0-11.273-.626-14.117-5.165C71.449,199.229,72.529,198.6,72.966,199.275Zm0,0" transform="translate(-71.613 -198.543)" fill="#93c572"/>
    </g>
    <g id="グループ_1746" data-name="グループ 1746" transform="translate(120.526 171.556)">
      <g id="グループ_1745" data-name="グループ 1745" transform="translate(0 0)">
        <g id="グループ_1744" data-name="グループ 1744" transform="translate(0 0)">
          <path id="パス_130" data-name="パス 130" d="M13.751-3.8v-.954H5.776V-3.8H3.547v-14.64l2.4.621H7.086a5.913,5.913,0,0,0,.322-.586c.115-.221.224-.451.333-.689s.2-.477.287-.7.149-.431.2-.609l3.309.517q-.517.474-1.264,1.046a17.339,17.339,0,0,1-1.482,1.023h5.125l.655-.655,2.057.908-.609.689V-3.8Zm0-12.606H5.776v2.379h7.975Zm0,3.792H5.776v2.379h7.975Zm0,3.792H5.776v2.632h7.975Zm0,0" transform="translate(-3.547 20.406)" fill="#93c572"/>
        </g>
      </g>
    </g>
    <g id="グループ_1749" data-name="グループ 1749" transform="translate(136.131 171.694)">
      <g id="グループ_1748" data-name="グループ 1748">
        <g id="グループ_1747" data-name="グループ 1747" transform="translate(0 0)">
          <path id="パス_131" data-name="パス 131" d="M14.3-16.369a9.022,9.022,0,0,0-.483-1.4,5.3,5.3,0,0,0-.7-1.218l.85-.506a8.965,8.965,0,0,1,1.184.9,13.558,13.558,0,0,1,1.023,1Zm2.769,7.3A3.719,3.719,0,0,0,16.357-9a5.883,5.883,0,0,0-.644.218,1.58,1.58,0,0,0-.586.391,8.49,8.49,0,0,1-1.574-2.08A11.257,11.257,0,0,1,12.5-13.186a7.918,7.918,0,0,1-1.563,2.976A9.328,9.328,0,0,1,7.785-7.889L6.82-8.75A8.562,8.562,0,0,0,8.451-9.969,7.389,7.389,0,0,0,9.6-11.37a7.675,7.675,0,0,0,.735-1.563,10.04,10.04,0,0,0,.4-1.678H8.969a10.488,10.488,0,0,1-2.448,4.079A13.819,13.819,0,0,1,2.051-7.6l-.885-.942a11.476,11.476,0,0,0,4.286-3.482,10.509,10.509,0,0,0,1.919-5.033H5.176l-.322.471a9.4,9.4,0,0,1,1.115.575,6.365,6.365,0,0,1,.908.632L5.406-13.554a7.189,7.189,0,0,0-1.115-2.218c-.155.207-.307.408-.46.6s-.3.365-.46.54a10.362,10.362,0,0,1,1.126.816,8.735,8.735,0,0,1,1.034.954L3.8-11.141a6.611,6.611,0,0,0-.46-1.494,9.418,9.418,0,0,0-.666-1.253c-.293.293-.592.575-.9.85L.729-13.692a12.3,12.3,0,0,0,2.183-3.126,12.883,12.883,0,0,0,1.126-3.4l2.448.575c-.092.207-.184.419-.276.632s-.19.431-.287.644h1.7l.494-.54,1.931.885-.494.666A12.9,12.9,0,0,1,9.336-16h1.505c.014-.336.023-.678.023-1.023s.011-.678.011-1c0-.414-.006-.8-.011-1.149v-.919h2.16c0,.2-.006.454-.011.758s-.02.644-.034,1.011-.017.741-.023,1.138-.011.793-.034,1.184h1.632l1.057-.793,1.505,1.115-1.344,1.069H13.128a8.471,8.471,0,0,0,1.816,2.792,9.63,9.63,0,0,0,2.689,1.931ZM15.059-3.717c-.109-.3-.238-.621-.391-.965s-.322-.672-.506-1.011-.368-.661-.575-.977a7.949,7.949,0,0,0-.621-.827l1.069-.54a9.779,9.779,0,0,1,1.77,1.31,13.794,13.794,0,0,1,1.528,1.6ZM10.4-3.809a7.733,7.733,0,0,0-.115-.885,9.493,9.493,0,0,0-.218-.977c-.086-.336-.184-.669-.3-1s-.23-.635-.345-.9l1.115-.391a8.551,8.551,0,0,1,.666.735c.23.27.442.546.644.827s.385.569.563.85a6.412,6.412,0,0,1,.448.793Zm-4.137.023c.029-.215.049-.437.057-.666s.023-.448.023-.678A12.979,12.979,0,0,0,6.28-6.487c-.04-.437-.089-.819-.149-1.149l1.184-.253a7.157,7.157,0,0,1,.425.793q.215.44.414.9c.129.3.247.595.356.885A6.894,6.894,0,0,1,8.75-4.5ZM.672-5.475A7.215,7.215,0,0,0,1.6-5.958,9.574,9.574,0,0,0,2.5-6.6a8.2,8.2,0,0,0,.781-.724,6.115,6.115,0,0,0,.6-.735l1.138.483q-.164.5-.379,1.034a9.2,9.2,0,0,1-.483,1.057,9.264,9.264,0,0,1-.609.965,4.337,4.337,0,0,1-.747.816Zm0,0" transform="translate(-0.672 20.219)" fill="#93c572"/>
        </g>
      </g>
    </g>
    <g id="グループ_1752" data-name="グループ 1752" transform="translate(154.299 173.786)">
      <g id="グループ_1751" data-name="グループ 1751" transform="translate(0)">
        <g id="グループ_1750" data-name="グループ 1750" transform="translate(0 0)">
          <path id="パス_132" data-name="パス 132" d="M7.774-5.148a10.762,10.762,0,0,0,2.183-.437,6.559,6.559,0,0,0,2.068-1.069,5.689,5.689,0,0,0,1.528-1.793,5.327,5.327,0,0,0,.609-2.632,5.451,5.451,0,0,0-.379-2.091,4.182,4.182,0,0,0-1.023-1.54,4.543,4.543,0,0,0-1.551-.954,5.43,5.43,0,0,0-1.965-.345,6.808,6.808,0,0,0-1.344.126l1.816.655c.006.069.011.144.011.218v.241a9.122,9.122,0,0,1-.264,2,20.13,20.13,0,0,1-.666,2.31,19.955,19.955,0,0,1-.954,2.241A11.993,11.993,0,0,1,6.774-6.4a3.741,3.741,0,0,1-.988.908,2.034,2.034,0,0,1-1.057.31,2.28,2.28,0,0,1-1.08-.333,4.315,4.315,0,0,1-1.138-.942,5.458,5.458,0,0,1-.885-1.471,5.061,5.061,0,0,1-.345-1.9,6.3,6.3,0,0,1,.23-1.643,7.9,7.9,0,0,1,.678-1.712,8.471,8.471,0,0,1,1.115-1.6A7.359,7.359,0,0,1,4.89-16.122a8.094,8.094,0,0,1,2.034-.908,8.6,8.6,0,0,1,2.505-.345,8.374,8.374,0,0,1,2.861.471,6.794,6.794,0,0,1,2.241,1.321,5.957,5.957,0,0,1,1.482,2.045,6.259,6.259,0,0,1,.54,2.62,6.639,6.639,0,0,1-.506,2.586,6.136,6.136,0,0,1-1.517,2.126,8.185,8.185,0,0,1-2.54,1.54,13.254,13.254,0,0,1-3.539.793ZM7.5-15.8a6.152,6.152,0,0,0-2.126.988,5.907,5.907,0,0,0-1.379,1.436,5.774,5.774,0,0,0-.747,1.632,6.077,6.077,0,0,0-.218,1.528A3.224,3.224,0,0,0,3.2-9.124a3.945,3.945,0,0,0,.425.839,2.161,2.161,0,0,0,.517.529.879.879,0,0,0,.448.184.644.644,0,0,0,.494-.287,9.334,9.334,0,0,0,.781-1.3,17.289,17.289,0,0,0,.793-1.85,15.362,15.362,0,0,0,.621-2.1,9.316,9.316,0,0,0,.253-2.08c0-.092-.006-.19-.011-.3S7.5-15.7,7.5-15.8Zm0,0" transform="translate(-1.281 17.375)" fill="#93c572"/>
        </g>
      </g>
    </g>
    <g id="グループ_1755" data-name="グループ 1755" transform="translate(170.701 171.786)">
      <g id="グループ_1754" data-name="グループ 1754" transform="translate(0)">
        <g id="グループ_1753" data-name="グループ 1753" transform="translate(0 0)">
          <path id="パス_133" data-name="パス 133" d="M12.841-9.591v-.345H5.1v.368H3.062v-7.021l2.218.517h2.6v-1.172H1.568l-.506-1.321H7.876v-1.528h2.149v1.528h4.321l1.115-.781,1.505,1.092-1.321,1.011H10.025v1.172H13l.689-.621,1.735.839-.506.563v5.7Zm2.712,4.826A5.547,5.547,0,0,0,15.07-5.81a10.284,10.284,0,0,0-.689-1.023,10.044,10.044,0,0,0-.77-.931,10.071,10.071,0,0,0-.735-.724l.908-.747a10.964,10.964,0,0,1,2.034,1.184,9.922,9.922,0,0,1,1.7,1.517ZM10.29-6.4A6.181,6.181,0,0,0,9.129-7.764,8.761,8.761,0,0,0,7.681-8.809l.712-.885a15.365,15.365,0,0,1,1.758.586,9.092,9.092,0,0,1,1.6.793ZM13.3-7.58c-.009.115-.011.224-.011.322v.276a3.978,3.978,0,0,0,.069.816,3.4,3.4,0,0,0,.149.529,1.2,1.2,0,0,0,.207.322,1.353,1.353,0,0,1,.2.264c-.078.106-.178.23-.3.368a1.672,1.672,0,0,1-.666.4,6.669,6.669,0,0,1-1.333.31,16.718,16.718,0,0,1-2.3.126q-.991,0-1.77-.069a4.729,4.729,0,0,1-1.321-.264,1.79,1.79,0,0,1-.827-.563,1.542,1.542,0,0,1-.276-.965v-.057l.034-3.447H7.221L7.187-6.4a.5.5,0,0,0,.184.414,1.371,1.371,0,0,0,.494.207,3.35,3.35,0,0,0,.678.08c.253.009.517.011.793.011.221,0,.448,0,.678-.011a6.721,6.721,0,0,0,.7-.08,1.569,1.569,0,0,0,.7-.23.9.9,0,0,0,.31-.4,1.606,1.606,0,0,0,.115-.575,6.216,6.216,0,0,1,.1-.758ZM.453-6.143a8,8,0,0,0,1.7-1.138A5.627,5.627,0,0,0,3.487-9l1.115.54A12.954,12.954,0,0,1,3.728-6.2,7.851,7.851,0,0,1,2.441-4.328Zm12.388-8.745H9.991v1.264h2.85Zm0,2.436H9.991v1.321h2.85Zm-4.93-2.436H5.1v1.264H7.911Zm0,2.436H5.1v1.321H7.911Zm0,0" transform="translate(-0.453 20.094)" fill="#93c572"/>
        </g>
      </g>
    </g>
    <g id="グループ_1758" data-name="グループ 1758" transform="translate(188.799 172.958)">
      <g id="グループ_1757" data-name="グループ 1757" transform="translate(0)">
        <g id="グループ_1756" data-name="グループ 1756" transform="translate(0 0)">
          <path id="パス_134" data-name="パス 134" d="M16.413-6.009q-.6-.56-1.218-1.057t-1.276-.942a7.952,7.952,0,0,1-1.23,1.678A7.984,7.984,0,0,1,11.139-5.1a9.251,9.251,0,0,1-1.793.827,13.1,13.1,0,0,1-1.988.517L6.622-4.894A10.041,10.041,0,0,0,8.2-5.423a7.739,7.739,0,0,0,1.471-.85,7.833,7.833,0,0,0,1.3-1.218,7.042,7.042,0,0,0,1.023-1.62A12.811,12.811,0,0,0,9.9-9.847a12.682,12.682,0,0,0-2.218-.379c-.086.178-.167.353-.241.529s-.161.362-.253.552a8.371,8.371,0,0,1-.977,1.609,6.418,6.418,0,0,1-1.057,1.08,4,4,0,0,1-1.092.609,3.009,3.009,0,0,1-1.034.2A2.077,2.077,0,0,1,1.543-6.2,1.934,1.934,0,0,1,.969-7.675a3.181,3.181,0,0,1,.345-1.413,4.023,4.023,0,0,1,1.046-1.287,6.032,6.032,0,0,1,1.7-.954,7.136,7.136,0,0,1,2.31-.437q.448-.883.862-1.758c.276-.58.523-1.106.747-1.574q.388-.836.747-1.574c-.307.155-.626.3-.954.425-.284.115-.606.227-.965.333a7.277,7.277,0,0,1-1.092.241L4.577-17.454c.075,0,.152.006.23.011h.218a12,12,0,0,0,1.6-.1,13.686,13.686,0,0,0,1.39-.253,13.033,13.033,0,0,0,1.333-.345l.448-.356,2.091,1.172c-.078.078-.149.155-.218.23a3.941,3.941,0,0,0-.356.4q-.53.75-.954,1.425t-.793,1.287c-.238.414-.46.822-.666,1.218s-.391.781-.575,1.172a21.822,21.822,0,0,1,2.183.31q1.069.207,2.068.506a13.255,13.255,0,0,0,.31-3l2.287.517q-.034.944-.138,1.758a10.237,10.237,0,0,1-.322,1.563,14.727,14.727,0,0,1,2.769,1.7ZM5.588-10.261a5.452,5.452,0,0,0-1.471.46,3.708,3.708,0,0,0-.931.644,2.1,2.1,0,0,0-.483.689,1.631,1.631,0,0,0-.126.575c0,.261.121.391.368.391a1.363,1.363,0,0,0,.345-.069,1.816,1.816,0,0,0,.586-.345,5.589,5.589,0,0,0,.793-.827A8.517,8.517,0,0,0,5.588-10.261Zm0,0" transform="translate(-0.969 18.5)" fill="#93c572"/>
        </g>
      </g>
    </g>
    <g id="グループ_1761" data-name="グループ 1761" transform="translate(206.163 171.694)">
      <g id="グループ_1760" data-name="グループ 1760">
        <g id="グループ_1759" data-name="グループ 1759" transform="translate(0 0)">
          <path id="パス_135" data-name="パス 135" d="M14.412-9.831H5.655l-.494-1.138H13.4l.954-.586,1.264.919Zm2.792,5a4.676,4.676,0,0,0-.735.276c-.215.1-.437.213-.666.345a2.685,2.685,0,0,0-.609.494,10.207,10.207,0,0,1-2.08-.609,7.538,7.538,0,0,1-1.643-.919,7.29,7.29,0,0,1-1.3-1.207A10.256,10.256,0,0,1,9.149-7.958H8v2.149c.414-.023.822-.052,1.23-.092s.8-.086,1.172-.126l-.034,1.011c-.437.121-.908.241-1.413.356s-1.011.236-1.54.345-1.043.213-1.563.3-1.011.172-1.471.241l-.793-1.9H4.736c.391,0,.773-.011,1.149-.034V-7.958H4.38A6.063,6.063,0,0,1,3.357-5.671a8.953,8.953,0,0,1-1.885,1.85l-.988-.7A6.626,6.626,0,0,0,1.5-5.74,5.773,5.773,0,0,0,2.1-7.05a7.558,7.558,0,0,0,.3-1.494c.052-.534.08-1.129.08-1.781,0-.213-.009-.465-.023-.758s-.02-.592-.034-.885S2.4-12.534,2.38-12.8s-.034-.486-.057-.655l2.482.644h9.653l.965-.644H13.63v-.264H4.943v.23H2.909v-5.964L5.1-18.92h1.31v-1.3H8.436v1.3h1.655v-1.3H12.1v1.3h1.689l.563-.552,1.793.816-.494.586v4.619h-.034l1.287.942-1.253.85H4.61c0,.238,0,.477.011.712s.011.437.011.6c0,.437-.02.862-.057,1.276H14.848l1.034-.758,1.436.988-1.31.885H14.285l1.609.931a12.863,12.863,0,0,1-1.367.483,11.9,11.9,0,0,1-1.448.322A10.544,10.544,0,0,0,15-5.855c.718.069,1.557.109,2.517.115ZM13.63-17.806h-1.7v.977h1.7Zm0,2.022h-1.7v1.011h1.7Zm-3.539-2.022H8.436v.977h1.655Zm0,2.022H8.436v1.011h1.655ZM6.6-17.806H4.943v.977H6.6Zm0,2.022H4.943v1.011H6.6Zm3.827,7.826a5.347,5.347,0,0,0,1.54,1.276c.322-.184.635-.382.942-.6a6.265,6.265,0,0,0,.816-.678Zm0,0" transform="translate(-0.484 20.219)" fill="#93c572"/>
        </g>
      </g>
    </g>
    <g id="グループ_1764" data-name="グループ 1764" transform="translate(224.836 171.66)">
      <g id="グループ_1763" data-name="グループ 1763" transform="translate(0 0)">
        <g id="グループ_1762" data-name="グループ 1762" transform="translate(0 0)">
          <path id="パス_136" data-name="パス 136" d="M14.732-3.8v-.77H3.9v.8H1.781V-20.231l2.287.586H14.927l.586-.621,1.931.908-.563.689V-3.8Zm0-14.64H3.9V-5.787H14.732Zm-1.379,4.39H4.631L4.16-15.163h4.1v-.827H5.344l-.483-1.115h3.4v-.816h2.011v.816h1.241l.9-.609,1.3.942-1.184.781H10.273v.827h2l.988-.655,1.276.977Zm-.287,7.814a10.484,10.484,0,0,0-1.344-1.115,13.162,13.162,0,0,0-1.517-.9v1.977H8.216l.126-2.3A11.818,11.818,0,0,1,4.689-6.476l-.621-.781A11.015,11.015,0,0,0,6.251-8.636a11.39,11.39,0,0,0,1.678-1.632H7.263v.241H5.5V-13.7l1.931.471h3.987l.552-.46,1.643.781-.529.552v2.218H12.4l1.436.655a6.638,6.638,0,0,1-1.758.816c.428.132.833.273,1.218.425s.738.31,1.069.471ZM11.285-12.2H7.263v.942h4.022Zm0,2.057v-.126H10.2v1.092c.152.04.3.078.448.115a4.452,4.452,0,0,1,.448.126,2.513,2.513,0,0,0,.448-.575c.129-.221.241-.431.333-.632Zm0,0" transform="translate(-1.781 20.266)" fill="#93c572"/>
        </g>
      </g>
    </g>
  </g>
</svg>
