<svg xmlns="http://www.w3.org/2000/svg" xmlns:xlink="http://www.w3.org/1999/xlink" width="203" height="157.339" viewBox="0 0 203 157.339">
  <defs>
    <clipPath id="clip-path">
      <path id="パス_176" data-name="パス 176" d="M103.613,111h168V218.8h-168Zm0,0"/>
    </clipPath>
    <clipPath id="clip-path-2">
      <path id="パス_189" data-name="パス 189" d="M106,101.051H269V164H106Zm0,0"/>
    </clipPath>
    <clipPath id="clip-path-3">
      <path id="パス_192" data-name="パス 192" d="M88,217H291v15.945H88Zm0,0"/>
    </clipPath>
  </defs>
  <g id="LOGO2" transform="translate(-88 -101.051)">
    <g id="グループ_1833" data-name="グループ 1833" clip-path="url(#clip-path)">
      <path id="パス_175" data-name="パス 175" d="M144.559,181.984c.895-1.758,1.379-1.812,1.34-3.547s-.527-4.832-.352-5.9c0,0-5.8.867-7.289-3.684,0,0,2.547-3.961,7.613-.062,0,0,.617.023.617-1.062,0-2.777,2.848-2.621,3.609-3.109.637-.4,2.688-.73,3.59.125.863.813,2.5-.117,3.9,1.551.883,1.055,4.969,1.043,12.016.906,17.422-.336,21.633,3.688,41.27-3.035,5.793-1.98,10.109-.656,13,2.41,2.227-.043,7.313.527,6.977,6.652-.434,7.828-1.844,20.285,2.547,22.074a1.925,1.925,0,0,1-1.219-.055,3.28,3.28,0,0,0,.918.766,1.387,1.387,0,0,1,.762,1.148,1.626,1.626,0,0,0-1.2-.582,1.864,1.864,0,0,1,.723,2.336s-.086-1.09-.668-1.469a3.519,3.519,0,0,1-.129,1.246,1.818,1.818,0,0,0-.461-.852s-.746,1.961,1.027,2c0,0-1.586,1.324-2.1-2.1a1.373,1.373,0,0,0-.734-1.027,3.7,3.7,0,0,1,.109,1.6,14.573,14.573,0,0,0-.555-1.68c-.2-.391-.164-.621-.027-1.461a5.347,5.347,0,0,0-.367-2.453,37.162,37.162,0,0,1-.445-8.1c.105-3.906.418-14.074-2.859-14.676,2.816,5.7,2.773,13.918-.016,20.191-2.141,4.824-.16,7.668.543,8.586s.313,2.453-.27,5.105c-.168.762-.375,1.816-.582,3.047a7,7,0,0,0,.938-3.078c2.148,2.039-3.719,8.145-.211,14.375,0,0,.133-7.41,2.813-9.406a10.336,10.336,0,0,0,.172,7.438,10.313,10.313,0,0,0,.172-7.437c2.684,2,2.813,9.406,2.813,9.406,3.512-6.23-2.355-12.336-.211-14.375.2,4.039,4.074,5.379,3.395,11.3,2.734-3.2,2.023-8.461,2.023-8.461,2.734,7.594-2.156,12.168-2.156,12.168,5.645-2.777,3.867-12.039,6.387-12.98a33.835,33.835,0,0,0,.188,7.594,15.489,15.489,0,0,0,.867-9.934c3.129,3.363,1.418,8.906,1.418,8.906,6.02-7.988,10.727-8.914,10.727-8.914a27.36,27.36,0,0,0-8.863,10,21.032,21.032,0,0,1,4.422-2.82,12.131,12.131,0,0,0-3.445,6.254c2.078-4.309,9.859-9.8,9.859-9.8a17.27,17.27,0,0,0-5.1,7.7,21.217,21.217,0,0,1,8.23-7.777,16.423,16.423,0,0,0-4.941,7.961,24.616,24.616,0,0,1,10.07-9.879,16.9,16.9,0,0,0-6.18,11.324c1.445-5.309,6.285-8.434,6.285-8.434-4.523,4.941-3.789,8.594-3.789,8.594a7.462,7.462,0,0,1,1.918-4.363,7.755,7.755,0,0,0,.5,4.047,20.364,20.364,0,0,1,3.246-5.109,84.3,84.3,0,0,0,2.578-42.6c-10.242-7.2-32.75-26.187-35.34-27.652-2.969-1.68-3.922.953-8.012-3.641s-17.289-18.062-22.277-22.32-5.969-3.387-7.93-2.883-3.922,3.527-1.711,7.082.508,6.949-1.625,9.918a4.881,4.881,0,0,0-.2,5.629c4.035,9.016,21.352,17,21.352,17,2.98,1.086,7.781,2.781,1.707,1.852-8.926-1.371-16.168-6.477-22.359-11.148-6.863-5.18-9.859-1.426-9.918.953s-1.094,3.082-6-.2-12.09-11.008-12.09-11.008c-3.324-3.012-5.8-6.23-9.48-2.6-1.352,1.336-2.8,3.391-2.176,4.781.867,1.934,1.234,3.5-.9,4.621s-8.824,2.1-8.516,6.945,9.582,9.41,9.582,9.41c-14.77-.855-11.414-14.25-23.707-4.422-6.762,5.406-18.43,12.051-24.637,15.453l0,0q-.293,1.277-.543,2.57a.012.012,0,0,1,.008,0,84.284,84.284,0,0,0,2.645,42.258,20.474,20.474,0,0,1,3.242,5.109,7.755,7.755,0,0,0,.5-4.047A7.462,7.462,0,0,1,113.5,216.6s.738-3.652-3.785-8.594c0,0,4.836,3.125,6.285,8.434a16.923,16.923,0,0,0-6.18-11.324,24.616,24.616,0,0,1,10.07,9.879,16.448,16.448,0,0,0-4.945-7.961,21.217,21.217,0,0,1,8.23,7.777,17.27,17.27,0,0,0-5.1-7.7s7.785,5.492,9.859,9.8a12.141,12.141,0,0,0-3.441-6.254,21.032,21.032,0,0,1,4.422,2.82,27.349,27.349,0,0,0-8.867-10s4.707.926,10.727,8.914c0,0-1.707-5.543,1.422-8.906a15.489,15.489,0,0,0,.867,9.934,33.989,33.989,0,0,0,.184-7.594c2.52.941.746,10.2,6.387,12.98,0,0-4.887-4.574-2.152-12.168,0,0-.711,5.258,2.023,8.461-.684-5.922,3.188-7.262,3.391-11.3,2.148,2.039-3.723,8.145-.211,14.375,0,0,.133-7.41,2.816-9.406a10.244,10.244,0,0,0,.391,7.9,10.234,10.234,0,0,0,.395-7.9c2.68,2,2.813,9.406,2.813,9.406,3.512-6.23-2.359-12.336-.211-14.375.2,4.039,4.074,5.379,3.391,11.3,2.734-3.2,2.027-8.461,2.027-8.461,2.734,7.594-2.156,12.168-2.156,12.168,5.641-2.777,3.867-12.039,6.387-12.98a33.989,33.989,0,0,0,.184,7.594,15.458,15.458,0,0,0,.867-9.934c3.129,3.363,1.422,8.906,1.422,8.906a34.229,34.229,0,0,1,5.664-6.031,17.563,17.563,0,0,0-1.484-5.035,4.044,4.044,0,0,1-1.965-1.543,3.629,3.629,0,0,0-2.344-1.652,5.423,5.423,0,0,1-2.223-1.723c-.258-.473-.77-.664-1.23-1.121s-.477.105-.637-3.172-2.316-6.473-4.242-6.3-3.3-.105-4.375.219-1.531-.418-1.883-.906-.664-.23-1.168-.328S143.664,183.746,144.559,181.984Zm0,0" fill="#93c572" fill-rule="evenodd"/>
    </g>
    <path id="パス_177" data-name="パス 177" d="M209.633,193.727c-14.012,13.871-24.875.984-33.02,4.875,0,0-.133-1.23,1.289-4.332s.055-7.148.055-7.148.27,4.738-1.086,7.012-1.652,3.684-1.031,7.258a14.1,14.1,0,0,1-.746,6.66,13.5,13.5,0,0,1,1.746-1.02,14.645,14.645,0,0,0-2.086,2.211c-.031.125-.059.246-.078.355a14.687,14.687,0,0,0-.125,1.563,23.2,23.2,0,0,1,7.414-6.047,16.908,16.908,0,0,0-6.176,11.324c1.445-5.309,6.281-8.434,6.281-8.434-4.523,4.941-3.785,8.594-3.785,8.594a7.462,7.462,0,0,1,1.918-4.363,7.755,7.755,0,0,0,.5,4.047,20.21,20.21,0,0,1,3.016-4.836,20.188,20.188,0,0,0-2.5-2.051,9,9,0,0,1,2.91,1.574,16.075,16.075,0,0,1,1.965-1.914,13.52,13.52,0,0,0-1.523,2.262c.289.234.59.5.9.8a27.055,27.055,0,0,1,1.715-2.281,15.981,15.981,0,0,0-3.047-3.852,15.175,15.175,0,0,1,3.7,3.109,15.175,15.175,0,0,1,3.7-3.109,15.981,15.981,0,0,0-3.047,3.852,26.235,26.235,0,0,1,1.719,2.281c.3-.3.605-.562.9-.8a13.8,13.8,0,0,0-1.527-2.262,16.243,16.243,0,0,1,1.969,1.914,8.968,8.968,0,0,1,2.906-1.574,20.188,20.188,0,0,0-2.5,2.051,20.21,20.21,0,0,1,3.016,4.836,7.755,7.755,0,0,0,.5-4.047,7.462,7.462,0,0,1,1.918,4.363s.738-3.652-3.785-8.594c0,0,4.836,3.125,6.285,8.434a16.923,16.923,0,0,0-6.18-11.324,24.616,24.616,0,0,1,10.07,9.879,16.448,16.448,0,0,0-4.945-7.961,21.217,21.217,0,0,1,8.23,7.777,17.281,17.281,0,0,0-5.1-7.7,50.08,50.08,0,0,1,8.258,7.395l.316-.492s.059-.09.156-.258a11.43,11.43,0,0,0-2.316-3.1,15.575,15.575,0,0,1,3.047,1.773c.109-.219.227-.457.348-.707a26.531,26.531,0,0,0-7.84-8.246s3.652.719,8.633,6.348a11.561,11.561,0,0,0,.766-3.559s.621-1.637-.637-4.508a20.419,20.419,0,0,1-1.6-6.758c-.242-1.977-3.168-6.227-6.34-4.25C204.754,190.75,207.7,190.207,209.633,193.727Zm0,0" fill="#93c572" fill-rule="evenodd"/>
    <path id="パス_178" data-name="パス 178" d="M218.32,207.57c.617,2.074.781,5.512,2.184,8.18a3.318,3.318,0,0,0,.645-.895,11.772,11.772,0,0,1-.187-6.918c-.117-1.008-.207-1.7-.207-1.7,3.41-2.762-1.027-9.605.738-10.742,1.3-.84,4.379-5.066,4.133-8.4-.535,2.348-3.3,6.492-4.5,7.145-3.457,1.879,2.016,8.828-1.125,11.063A8.253,8.253,0,0,0,218.32,207.57Zm0,0" fill="#93c572" fill-rule="evenodd"/>
    <path id="パス_179" data-name="パス 179" d="M216.949,213.418a30.089,30.089,0,0,0,.3-3.859c-.332.66-.664,1.352-.98,2.047A13.95,13.95,0,0,0,216.949,213.418Zm0,0" fill="#93c572" fill-rule="evenodd"/>
    <path id="パス_180" data-name="パス 180" d="M167.1,212.688c.008-.508.008-1.129-.012-1.828a12.174,12.174,0,0,0-3.234,6.051A17.32,17.32,0,0,1,167.1,212.688Zm0,0" fill="#93c572" fill-rule="evenodd"/>
    <path id="パス_181" data-name="パス 181" d="M162.875,213.477a21.773,21.773,0,0,1,4.207-2.73c-.031-.9-.094-1.918-.215-2.98A30.506,30.506,0,0,0,162.875,213.477Zm0,0" fill="#93c572" fill-rule="evenodd"/>
    <path id="パス_182" data-name="パス 182" d="M170.957,210.148a17.4,17.4,0,0,0-1.109,1.781c-.023.414-.047.82-.074,1.191.367-.488.742-.941,1.113-1.363C170.938,211.121,170.965,210.559,170.957,210.148Zm0,0" fill="#93c572" fill-rule="evenodd"/>
    <path id="パス_183" data-name="パス 183" d="M169.914,210.09c.328-.281.648-.547.957-.8-.2-1.219-.633-2.93-.949-4.488-.086.074-.176.148-.27.227.059.672.156,1.484.309,2.43C169.961,207.461,169.957,208.652,169.914,210.09Zm0,0" fill="#93c572" fill-rule="evenodd"/>
    <path id="パス_184" data-name="パス 184" d="M169.605,204.363c.07-.039.141-.078.207-.113-.105-.586-.191-1.133-.23-1.613A13.689,13.689,0,0,0,169.605,204.363Zm0,0" fill="#93c572" fill-rule="evenodd"/>
    <path id="パス_185" data-name="パス 185" d="M187.836,211.2a10.817,10.817,0,0,0-.723,2.734c.242.3.48.625.723.969.242-.344.484-.668.723-.969A10.817,10.817,0,0,0,187.836,211.2Zm0,0" fill="#93c572" fill-rule="evenodd"/>
    <path id="パス_186" data-name="パス 186" d="M185,212.836c-.234-.285-.488-.578-.758-.867a14.059,14.059,0,0,0-1.352,4.813A32.427,32.427,0,0,1,185,212.836Zm0,0" fill="#93c572" fill-rule="evenodd"/>
    <path id="パス_187" data-name="パス 187" d="M190.676,212.836a32.427,32.427,0,0,1,2.109,3.945,13.993,13.993,0,0,0-1.348-4.812C191.164,212.258,190.91,212.551,190.676,212.836Zm0,0" fill="#93c572" fill-rule="evenodd"/>
    <g id="グループ_1834" data-name="グループ 1834" clip-path="url(#clip-path-2)">
      <path id="パス_188" data-name="パス 188" d="M106.777,162.223c9.527-3.617,39.895-32.793,46.438-38.359,6.219-5.293,10.449-.785,12.887,1.43s9,6.609,9,6.609l-5.074-5.488s1.012-.758,11.992-11.008,14.57-9.578,17.484-9.074,19.617,16.074,34.523,28.844c13.77,11.8,32.035,26.082,34.738,28.191a84,84,0,0,0-161.984-1.145Zm0,0" fill="#93c572" fill-rule="evenodd"/>
    </g>
    <path id="パス_190" data-name="パス 190" d="M283.043,230.434a55.089,55.089,0,0,0-14.344-2.961c-1.008-.078-1.008-1.68,0-1.559a47.244,47.244,0,0,1,14.746,3.637C283.93,229.754,283.566,230.633,283.043,230.434Zm0,0" fill="#93c572"/>
    <g id="グループ_1835" data-name="グループ 1835" clip-path="url(#clip-path-3)">
      <path id="パス_191" data-name="パス 191" d="M91.676,218.277c3.184,4.8,8.785,7.316,14.223,8.8a73.36,73.36,0,0,0,19.781,2.2c13.777-.121,27.637-2.16,41.336-3.6,28-2.922,56.16-6,84.359-5.6a182.7,182.7,0,0,1,18.777,1.039c14.1,2,19.254,6.277,19.578,6.555s.645.563.926.84a.482.482,0,0,1-.484.8,103.126,103.126,0,0,0-17.242-4.758,140.07,140.07,0,0,0-19.621-1.359c-14.422-.281-28.883.4-43.266,1.52-14.262,1.121-28.484,2.719-42.664,4.316-13.941,1.563-28.043,3.762-42.1,3.719-12.246,0-29.047-1.559-36.379-12.875C87.77,218.156,90.551,216.6,91.676,218.277Zm0,0" fill="#93c572"/>
    </g>
    <g id="グループ_1838" data-name="グループ 1838">
      <g id="グループ_1837" data-name="グループ 1837" transform="translate(103.643 256.156)">
        <g id="グループ_1836" data-name="グループ 1836">
          <path id="パス_193" data-name="パス 193" d="M17.422,2.172V.875H6.578v1.3H3.547V-17.734l3.266.844H8.359a8.04,8.04,0,0,0,.438-.8c.156-.3.3-.613.453-.937s.273-.648.391-.953.2-.586.266-.828l4.5.7q-.7.645-1.719,1.422a23.577,23.577,0,0,1-2.016,1.391h6.969l.891-.891,2.8,1.234-.828.938V2.172Zm0-17.141H6.578v3.234H17.422Zm0,5.156H6.578v3.234H17.422Zm0,5.156H6.578v3.578H17.422Zm0,0" fill="#93c572"/>
        </g>
      </g>
    </g>
    <g id="グループ_1841" data-name="グループ 1841">
      <g id="グループ_1840" data-name="グループ 1840" transform="translate(127.737 256.156)">
        <g id="グループ_1839" data-name="グループ 1839">
          <path id="パス_194" data-name="パス 194" d="M19.2-14.984a12.268,12.268,0,0,0-.656-1.906,7.2,7.2,0,0,0-.953-1.656l1.156-.687a12.19,12.19,0,0,1,1.609,1.219,18.436,18.436,0,0,1,1.391,1.359Zm3.766,9.922A5.057,5.057,0,0,0,22-4.969a8,8,0,0,0-.875.3,2.149,2.149,0,0,0-.8.531,11.544,11.544,0,0,1-2.141-2.828,15.307,15.307,0,0,1-1.437-3.687,10.766,10.766,0,0,1-2.125,4.047,12.684,12.684,0,0,1-4.281,3.156L9.031-4.625A11.642,11.642,0,0,0,11.25-6.281a10.047,10.047,0,0,0,1.563-1.906,10.437,10.437,0,0,0,1-2.125,13.652,13.652,0,0,0,.547-2.281H11.953A14.261,14.261,0,0,1,8.625-7.047,18.79,18.79,0,0,1,2.547-3.062l-1.2-1.281A15.6,15.6,0,0,0,7.172-9.078a14.29,14.29,0,0,0,2.609-6.844H6.8l-.437.641a12.776,12.776,0,0,1,1.516.781,8.655,8.655,0,0,1,1.234.859l-2,2.484a9.775,9.775,0,0,0-1.516-3.016c-.211.281-.418.555-.625.813s-.406.5-.625.734a14.09,14.09,0,0,1,1.531,1.109,11.877,11.877,0,0,1,1.406,1.3L4.922-7.875A8.989,8.989,0,0,0,4.3-9.906a12.806,12.806,0,0,0-.906-1.7c-.4.4-.8.781-1.219,1.156L.75-11.344a16.729,16.729,0,0,0,2.969-4.25A17.517,17.517,0,0,0,5.25-20.219l3.328.781c-.125.281-.25.57-.375.859s-.258.586-.391.875h2.313l.672-.734,2.625,1.2-.672.906a17.54,17.54,0,0,1-.3,1.844H14.5c.02-.457.031-.922.031-1.391s.016-.922.016-1.359c0-.562-.008-1.082-.016-1.562v-1.25h2.938c0,.273-.008.617-.016,1.031s-.027.875-.047,1.375-.023,1.008-.031,1.547-.016,1.078-.047,1.609h2.219l1.438-1.078,2.047,1.516L21.2-12.594H17.609a11.518,11.518,0,0,0,2.469,3.8,13.094,13.094,0,0,0,3.656,2.625ZM20.234,2.219c-.148-.406-.324-.844-.531-1.312s-.437-.914-.687-1.375-.5-.9-.781-1.328a10.809,10.809,0,0,0-.844-1.125l1.453-.734A13.3,13.3,0,0,1,21.25-1.875,18.757,18.757,0,0,1,23.328.3Zm-6.328-.125a10.515,10.515,0,0,0-.156-1.2,12.908,12.908,0,0,0-.3-1.328c-.117-.457-.25-.91-.406-1.359s-.312-.863-.469-1.219l1.516-.531a11.628,11.628,0,0,1,.906,1c.313.367.6.742.875,1.125s.523.773.766,1.156A8.718,8.718,0,0,1,17.25.813Zm-5.625.031c.039-.293.066-.594.078-.906S8.391.609,8.391.3A17.648,17.648,0,0,0,8.3-1.547c-.055-.594-.121-1.113-.2-1.562L9.7-3.453a9.732,9.732,0,0,1,.578,1.078q.293.6.563,1.219c.176.406.336.809.484,1.2a9.374,9.374,0,0,1,.328,1.109ZM.672-.172A9.81,9.81,0,0,0,1.938-.828,13.018,13.018,0,0,0,3.156-1.7a11.155,11.155,0,0,0,1.063-.984,8.315,8.315,0,0,0,.813-1l1.547.656q-.223.674-.516,1.406A12.512,12.512,0,0,1,5.406-.187a12.6,12.6,0,0,1-.828,1.313A5.9,5.9,0,0,1,3.563,2.234Zm0,0" fill="#93c572"/>
        </g>
      </g>
    </g>
    <g id="グループ_1844" data-name="グループ 1844">
      <g id="グループ_1843" data-name="グループ 1843" transform="translate(151.83 256.156)">
        <g id="グループ_1842" data-name="グループ 1842">
          <path id="パス_195" data-name="パス 195" d="M10.109-.75a14.633,14.633,0,0,0,2.969-.594A8.918,8.918,0,0,0,15.891-2.8a7.736,7.736,0,0,0,2.078-2.437A7.243,7.243,0,0,0,18.8-8.812a7.411,7.411,0,0,0-.516-2.844,5.686,5.686,0,0,0-1.391-2.094,6.177,6.177,0,0,0-2.109-1.3,7.384,7.384,0,0,0-2.672-.469,9.258,9.258,0,0,0-1.828.172l2.469.891c.008.094.016.2.016.3v.328a12.4,12.4,0,0,1-.359,2.719A27.372,27.372,0,0,1,11.5-7.969a27.133,27.133,0,0,1-1.3,3.047A16.308,16.308,0,0,1,8.75-2.453,5.086,5.086,0,0,1,7.406-1.219,2.766,2.766,0,0,1,5.969-.8,3.1,3.1,0,0,1,4.5-1.25,5.868,5.868,0,0,1,2.953-2.531a7.421,7.421,0,0,1-1.2-2,6.882,6.882,0,0,1-.469-2.578,8.57,8.57,0,0,1,.313-2.234,10.736,10.736,0,0,1,.922-2.328,11.518,11.518,0,0,1,1.516-2.172,10.006,10.006,0,0,1,2.156-1.828,11.005,11.005,0,0,1,2.766-1.234,11.7,11.7,0,0,1,3.406-.469,11.386,11.386,0,0,1,3.891.641,9.239,9.239,0,0,1,3.047,1.8,8.1,8.1,0,0,1,2.016,2.781,8.51,8.51,0,0,1,.734,3.563,9.027,9.027,0,0,1-.687,3.516A8.343,8.343,0,0,1,19.3-2.187,11.129,11.129,0,0,1,15.844-.094,18.022,18.022,0,0,1,11.031.984ZM9.734-15.234a8.364,8.364,0,0,0-2.891,1.344,8.032,8.032,0,0,0-1.875,1.953A7.851,7.851,0,0,0,3.953-9.719a8.263,8.263,0,0,0-.3,2.078,4.384,4.384,0,0,0,.234,1.484,5.364,5.364,0,0,0,.578,1.141,2.938,2.938,0,0,0,.7.719,1.2,1.2,0,0,0,.609.25.876.876,0,0,0,.672-.391A12.692,12.692,0,0,0,7.516-6.2,23.508,23.508,0,0,0,8.594-8.719a20.888,20.888,0,0,0,.844-2.859,12.667,12.667,0,0,0,.344-2.828c0-.125-.008-.258-.016-.406S9.742-15.1,9.734-15.234Zm0,0" fill="#93c572"/>
        </g>
      </g>
    </g>
    <g id="グループ_1847" data-name="グループ 1847">
      <g id="グループ_1846" data-name="グループ 1846" transform="translate(174.96 256.156)">
        <g id="グループ_1845" data-name="グループ 1845">
          <path id="パス_196" data-name="パス 196" d="M17.3-5.812v-.469H6.766v.5H4v-9.547l3.016.7h3.531v-1.594H1.969l-.687-1.8h9.266v-2.078h2.922v2.078h5.875l1.516-1.062,2.047,1.484-1.8,1.375H13.469v1.594h4.047l.938-.844,2.359,1.141-.687.766v7.75ZM20.984.75a7.542,7.542,0,0,0-.656-1.422,13.983,13.983,0,0,0-.937-1.391,13.657,13.657,0,0,0-1.047-1.266,13.694,13.694,0,0,0-1-.984l1.234-1.016a14.907,14.907,0,0,1,2.766,1.609,13.491,13.491,0,0,1,2.313,2.063ZM13.828-1.469A8.4,8.4,0,0,0,12.25-3.328,11.913,11.913,0,0,0,10.281-4.75l.969-1.2a20.891,20.891,0,0,1,2.391.8,12.363,12.363,0,0,1,2.172,1.078Zm4.094-1.609c-.012.156-.016.3-.016.438v.375A5.409,5.409,0,0,0,18-1.156a4.616,4.616,0,0,0,.2.719A1.625,1.625,0,0,0,18.484,0a1.839,1.839,0,0,1,.266.359c-.105.145-.242.313-.406.5a2.274,2.274,0,0,1-.906.547,9.069,9.069,0,0,1-1.812.422A22.731,22.731,0,0,1,12.5,2q-1.348,0-2.406-.094a6.43,6.43,0,0,1-1.8-.359A2.434,2.434,0,0,1,7.172.781,2.1,2.1,0,0,1,6.8-.531V-.609L6.844-5.3H9.656L9.609-1.469a.674.674,0,0,0,.25.563,1.864,1.864,0,0,0,.672.281,4.555,4.555,0,0,0,.922.109c.344.012.7.016,1.078.016.3,0,.609,0,.922-.016a9.138,9.138,0,0,0,.953-.109,2.134,2.134,0,0,0,.953-.312,1.23,1.23,0,0,0,.422-.547,2.184,2.184,0,0,0,.156-.781A8.452,8.452,0,0,1,16.078-3.3ZM.453-1.125A10.871,10.871,0,0,0,2.766-2.672,7.652,7.652,0,0,0,4.578-5.016l1.516.734A17.614,17.614,0,0,1,4.906-1.2a10.675,10.675,0,0,1-1.75,2.547ZM17.3-13.016H13.422V-11.3H17.3Zm0,3.313H13.422v1.8H17.3Zm-6.7-3.312H6.766V-11.3h3.828Zm0,3.313H6.766v1.8h3.828Zm0,0" fill="#93c572"/>
        </g>
      </g>
    </g>
    <g id="グループ_1850" data-name="グループ 1850">
      <g id="グループ_1849" data-name="グループ 1849" transform="translate(199.054 256.156)">
        <g id="グループ_1848" data-name="グループ 1848">
          <path id="パス_197" data-name="パス 197" d="M21.969-1.516q-.814-.762-1.656-1.437T18.578-4.234a10.812,10.812,0,0,1-1.672,2.281A10.856,10.856,0,0,1,14.8-.281,12.579,12.579,0,0,1,12.359.844a17.808,17.808,0,0,1-2.7.7L8.656,0A13.653,13.653,0,0,0,10.8-.719a10.523,10.523,0,0,0,2-1.156,10.651,10.651,0,0,0,1.766-1.656,9.575,9.575,0,0,0,1.391-2.2,17.42,17.42,0,0,0-2.844-1,17.244,17.244,0,0,0-3.016-.516c-.117.242-.227.48-.328.719s-.219.492-.344.75A11.382,11.382,0,0,1,8.094-3.594,8.726,8.726,0,0,1,6.656-2.125,5.442,5.442,0,0,1,5.172-1.3a4.091,4.091,0,0,1-1.406.266,2.824,2.824,0,0,1-2.016-.75,2.63,2.63,0,0,1-.781-2A4.325,4.325,0,0,1,1.438-5.7a5.47,5.47,0,0,1,1.422-1.75,8.2,8.2,0,0,1,2.313-1.3,9.7,9.7,0,0,1,3.141-.594q.609-1.2,1.172-2.391c.375-.789.711-1.5,1.016-2.141q.527-1.137,1.016-2.141c-.418.211-.852.4-1.3.578-.387.156-.824.309-1.312.453a9.894,9.894,0,0,1-1.484.328L5.875-17.078c.1,0,.207.008.313.016h.3A16.32,16.32,0,0,0,8.656-17.2a18.61,18.61,0,0,0,1.891-.344,17.722,17.722,0,0,0,1.813-.469l.609-.484,2.844,1.594c-.105.105-.2.211-.3.313a5.358,5.358,0,0,0-.484.547q-.721,1.02-1.3,1.938t-1.078,1.75c-.324.563-.625,1.117-.906,1.656s-.531,1.063-.781,1.594a29.672,29.672,0,0,1,2.969.422q1.453.281,2.813.688a18.023,18.023,0,0,0,.422-4.078l3.109.7q-.047,1.283-.187,2.391a13.919,13.919,0,0,1-.437,2.125,20.025,20.025,0,0,1,3.766,2.313ZM7.25-7.3a7.413,7.413,0,0,0-2,.625A5.041,5.041,0,0,0,3.984-5.8a2.857,2.857,0,0,0-.656.938,2.217,2.217,0,0,0-.172.781c0,.355.164.531.5.531a1.853,1.853,0,0,0,.469-.094,2.469,2.469,0,0,0,.8-.469A7.6,7.6,0,0,0,6-5.234,11.581,11.581,0,0,0,7.25-7.3Zm0,0" fill="#93c572"/>
        </g>
      </g>
    </g>
    <g id="グループ_1853" data-name="グループ 1853">
      <g id="グループ_1852" data-name="グループ 1852" transform="translate(223.148 256.156)">
        <g id="グループ_1851" data-name="グループ 1851">
          <path id="パス_198" data-name="パス 198" d="M19.422-6.094H7.516L6.844-7.641h11.2l1.3-.8,1.719,1.25Zm3.8,6.8a6.358,6.358,0,0,0-1,.375c-.293.133-.594.289-.906.469a3.65,3.65,0,0,0-.828.672,13.878,13.878,0,0,1-2.828-.828A10.25,10.25,0,0,1,15.422.141,9.912,9.912,0,0,1,13.656-1.5a13.946,13.946,0,0,1-1.391-2.047H10.7V-.625c.563-.031,1.117-.07,1.672-.125s1.082-.117,1.594-.172L13.922.453C13.328.617,12.688.781,12,.938s-1.375.32-2.094.469-1.418.289-2.125.406-1.375.234-2,.328L4.7-.437H6.266c.531,0,1.051-.016,1.563-.047V-3.547H5.781A8.245,8.245,0,0,1,4.391-.437,12.174,12.174,0,0,1,1.828,2.078L.484,1.125A9.01,9.01,0,0,0,1.859-.531a7.85,7.85,0,0,0,.828-1.781,10.276,10.276,0,0,0,.406-2.031c.07-.727.109-1.535.109-2.422,0-.289-.012-.633-.031-1.031S3.145-8.6,3.125-9s-.031-.77-.062-1.125-.047-.66-.078-.891l3.375.875H19.484l1.313-.875H18.359v-.359H6.547v.313H3.781v-8.109l2.984.719H8.547v-1.766H11.3v1.766h2.25v-1.766h2.734v1.766h2.3l.766-.75,2.438,1.109-.672.8v6.281h-.047l1.75,1.281-1.7,1.156H6.094c0,.324,0,.648.016.969s.016.594.016.813c0,.594-.027,1.172-.078,1.734H20.016l1.406-1.031L23.375-4.75l-1.781,1.2H19.25l2.188,1.266a17.49,17.49,0,0,1-1.859.656,16.176,16.176,0,0,1-1.969.438,14.336,14.336,0,0,0,2.609.5c.977.094,2.117.148,3.422.156ZM18.359-16.937H16.047v1.328h2.313Zm0,2.75H16.047v1.375h2.313Zm-4.812-2.75H11.3v1.328h2.25Zm0,2.75H11.3v1.375h2.25ZM8.8-16.937H6.547v1.328H8.8Zm0,2.75H6.547v1.375H8.8ZM14-3.547a7.271,7.271,0,0,0,2.094,1.734c.438-.25.863-.52,1.281-.812a8.519,8.519,0,0,0,1.109-.922Zm0,0" fill="#93c572"/>
        </g>
      </g>
    </g>
    <g id="グループ_1856" data-name="グループ 1856">
      <g id="グループ_1855" data-name="グループ 1855" transform="translate(247.242 256.156)">
        <g id="グループ_1854" data-name="グループ 1854">
          <path id="パス_199" data-name="パス 199" d="M19.391,2.125V1.078H4.656V2.172H1.781V-20.219l3.109.8H19.656l.8-.844,2.625,1.234-.766.938V2.125Zm0-19.906H4.656v17.2H19.391Zm-1.875,5.969H5.656l-.641-1.516h5.578v-1.125H6.625l-.656-1.516h4.625v-1.109h2.734v1.109h1.688l1.219-.828L18-15.516l-1.609,1.063H13.328v1.125h2.719l1.344-.891,1.734,1.328ZM17.125-1.187A14.256,14.256,0,0,0,15.3-2.7a17.9,17.9,0,0,0-2.062-1.219v2.688h-2.7L10.7-4.359A16.069,16.069,0,0,1,5.734-1.516L4.891-2.578A14.978,14.978,0,0,0,7.859-4.453a15.488,15.488,0,0,0,2.281-2.219H9.234v.328H6.844v-5l2.625.641h5.422l.75-.625,2.234,1.063-.719.75V-6.5h-.937l1.953.891A9.026,9.026,0,0,1,15.781-4.5c.582.18,1.133.371,1.656.578s1,.422,1.453.641ZM14.7-9.3H9.234v1.281H14.7Zm0,2.8v-.172H13.234v1.484c.207.055.41.105.609.156a6.053,6.053,0,0,1,.609.172,3.416,3.416,0,0,0,.609-.781c.176-.3.328-.586.453-.859Zm0,0" fill="#93c572"/>
        </g>
      </g>
    </g>
  </g>
</svg>
