<svg xmlns="http://www.w3.org/2000/svg" xmlns:xlink="http://www.w3.org/1999/xlink" width="260" height="21.863" viewBox="0 0 260 21.863">
  <defs>
    <clipPath id="clip-path">
      <path id="パス_129" data-name="パス 129" d="M71.551,198.383h260v21.864h-260Zm0,0" transform="translate(-71.551 -198.383)"/>
    </clipPath>
  </defs>
  <g id="グループ_1927" data-name="グループ 1927" transform="translate(-71.551 -190.309)">
    <path id="パス_127" data-name="パス 127" d="M185.761,209.54a68.586,68.586,0,0,0-18.391-3.919c-1.29-.114-1.29-2.23,0-2.069a58.926,58.926,0,0,1,18.9,4.821C186.9,208.638,186.435,209.806,185.761,209.54Zm0,0" transform="translate(135.57 -0.698)" fill="#93c572"/>
    <g id="グループ_1743" data-name="グループ 1743" transform="translate(71.551 190.309)" clip-path="url(#clip-path)">
      <path id="パス_128" data-name="パス 128" d="M75.685,199.938c4.08,6.358,11.264,9.7,18.229,11.662a91.489,91.489,0,0,0,25.356,2.913c17.669-.161,35.433-2.866,52.989-4.773,35.9-3.862,72-7.943,108.141-7.411a226.428,226.428,0,0,1,24.065,1.376c18.077,2.647,24.691,8.313,25.1,8.692s.826.74,1.186,1.11a.631.631,0,0,1-.617,1.053c-7.278-2.591-14.462-5.029-22.1-6.3a174.087,174.087,0,0,0-25.156-1.8,554.85,554.85,0,0,0-55.456,2.012c-18.286,1.49-36.515,3.606-54.7,5.722-17.869,2.069-35.946,4.982-53.966,4.934-15.7,0-37.236-2.069-46.631-17.062C70.674,199.786,74.242,197.718,75.685,199.938Zm0,0" transform="translate(-71.215 -197.518)" fill="#93c572"/>
    </g>
  </g>
</svg>
